<mxfile host="app.diagrams.net" agent="Mozilla/5.0 (Windows NT 10.0; Win64; x64) AppleWebKit/537.36 (KHTML, like Gecko) Chrome/133.0.0.0 Safari/537.36" version="26.0.14">
  <diagram name="Page-1" id="L-sf4UDmW3lwdUS-X8YM">
    <mxGraphModel dx="1430" dy="781" grid="1" gridSize="10" guides="1" tooltips="1" connect="1" arrows="1" fold="1" page="1" pageScale="1" pageWidth="1169" pageHeight="827" math="0" shadow="0">
      <root>
        <mxCell id="0" />
        <mxCell id="1" parent="0" />
        <mxCell id="mV4Gk4VA64g0n_hz20sP-16" style="edgeStyle=orthogonalEdgeStyle;rounded=0;orthogonalLoop=1;jettySize=auto;html=1;fontSize=12;" edge="1" parent="1" source="mV4Gk4VA64g0n_hz20sP-2" target="mV4Gk4VA64g0n_hz20sP-7">
          <mxGeometry relative="1" as="geometry" />
        </mxCell>
        <mxCell id="mV4Gk4VA64g0n_hz20sP-17" style="edgeStyle=orthogonalEdgeStyle;rounded=0;orthogonalLoop=1;jettySize=auto;html=1;entryX=0;entryY=0.5;entryDx=0;entryDy=0;fontSize=12;" edge="1" parent="1" source="mV4Gk4VA64g0n_hz20sP-2" target="mV4Gk4VA64g0n_hz20sP-8">
          <mxGeometry relative="1" as="geometry">
            <Array as="points">
              <mxPoint x="570" y="220" />
              <mxPoint x="570" y="285" />
            </Array>
          </mxGeometry>
        </mxCell>
        <mxCell id="mV4Gk4VA64g0n_hz20sP-19" style="edgeStyle=orthogonalEdgeStyle;rounded=0;orthogonalLoop=1;jettySize=auto;html=1;entryX=0;entryY=0.5;entryDx=0;entryDy=0;fontSize=12;" edge="1" parent="1" source="mV4Gk4VA64g0n_hz20sP-2" target="mV4Gk4VA64g0n_hz20sP-10">
          <mxGeometry relative="1" as="geometry">
            <Array as="points">
              <mxPoint x="570" y="220" />
              <mxPoint x="570" y="410" />
            </Array>
          </mxGeometry>
        </mxCell>
        <mxCell id="mV4Gk4VA64g0n_hz20sP-2" value="Basic" style="shape=umlActor;verticalLabelPosition=bottom;verticalAlign=top;html=1;outlineConnect=0;fontSize=12;" vertex="1" parent="1">
          <mxGeometry x="440" y="190" width="30" height="60" as="geometry" />
        </mxCell>
        <mxCell id="mV4Gk4VA64g0n_hz20sP-29" style="edgeStyle=orthogonalEdgeStyle;rounded=0;orthogonalLoop=1;jettySize=auto;html=1;entryX=0.5;entryY=0;entryDx=0;entryDy=0;fontSize=12;" edge="1" parent="1" source="mV4Gk4VA64g0n_hz20sP-3" target="mV4Gk4VA64g0n_hz20sP-12">
          <mxGeometry relative="1" as="geometry" />
        </mxCell>
        <mxCell id="mV4Gk4VA64g0n_hz20sP-3" value="Admin" style="shape=umlActor;verticalLabelPosition=bottom;verticalAlign=top;html=1;outlineConnect=0;fontSize=12;" vertex="1" parent="1">
          <mxGeometry x="440" y="454" width="30" height="60" as="geometry" />
        </mxCell>
        <mxCell id="mV4Gk4VA64g0n_hz20sP-4" value="Register" style="ellipse;whiteSpace=wrap;html=1;fontSize=12;" vertex="1" parent="1">
          <mxGeometry x="290" y="80" width="80" height="50" as="geometry" />
        </mxCell>
        <mxCell id="mV4Gk4VA64g0n_hz20sP-5" value="Log in" style="ellipse;whiteSpace=wrap;html=1;fontSize=12;" vertex="1" parent="1">
          <mxGeometry x="510" y="80" width="80" height="50" as="geometry" />
        </mxCell>
        <mxCell id="mV4Gk4VA64g0n_hz20sP-7" value="Manage recipes" style="ellipse;whiteSpace=wrap;html=1;fontSize=12;" vertex="1" parent="1">
          <mxGeometry x="660" y="195" width="80" height="50" as="geometry" />
        </mxCell>
        <mxCell id="mV4Gk4VA64g0n_hz20sP-8" value="Manage grocery lists" style="ellipse;whiteSpace=wrap;html=1;fontSize=12;" vertex="1" parent="1">
          <mxGeometry x="660" y="260" width="80" height="50" as="geometry" />
        </mxCell>
        <mxCell id="mV4Gk4VA64g0n_hz20sP-9" value="Manage pantry" style="ellipse;whiteSpace=wrap;html=1;fontSize=12;" vertex="1" parent="1">
          <mxGeometry x="660" y="320" width="80" height="50" as="geometry" />
        </mxCell>
        <mxCell id="mV4Gk4VA64g0n_hz20sP-10" value="Create meals and menus" style="ellipse;whiteSpace=wrap;html=1;fontSize=12;" vertex="1" parent="1">
          <mxGeometry x="660" y="385" width="80" height="50" as="geometry" />
        </mxCell>
        <mxCell id="mV4Gk4VA64g0n_hz20sP-12" value="Update product categories" style="ellipse;whiteSpace=wrap;html=1;fontSize=12;" vertex="1" parent="1">
          <mxGeometry x="320" y="570" width="80" height="50" as="geometry" />
        </mxCell>
        <mxCell id="mV4Gk4VA64g0n_hz20sP-13" value="Change user role" style="ellipse;whiteSpace=wrap;html=1;fontSize=12;" vertex="1" parent="1">
          <mxGeometry x="490" y="570" width="80" height="50" as="geometry" />
        </mxCell>
        <mxCell id="mV4Gk4VA64g0n_hz20sP-18" style="edgeStyle=orthogonalEdgeStyle;rounded=0;orthogonalLoop=1;jettySize=auto;html=1;entryX=0;entryY=0.6;entryDx=0;entryDy=0;entryPerimeter=0;fontSize=12;" edge="1" parent="1" source="mV4Gk4VA64g0n_hz20sP-2" target="mV4Gk4VA64g0n_hz20sP-9">
          <mxGeometry relative="1" as="geometry">
            <Array as="points">
              <mxPoint x="570" y="220" />
              <mxPoint x="570" y="350" />
            </Array>
          </mxGeometry>
        </mxCell>
        <mxCell id="mV4Gk4VA64g0n_hz20sP-30" style="edgeStyle=orthogonalEdgeStyle;rounded=0;orthogonalLoop=1;jettySize=auto;html=1;entryX=0.566;entryY=-0.026;entryDx=0;entryDy=0;entryPerimeter=0;fontSize=12;" edge="1" parent="1" source="mV4Gk4VA64g0n_hz20sP-3" target="mV4Gk4VA64g0n_hz20sP-13">
          <mxGeometry relative="1" as="geometry" />
        </mxCell>
        <mxCell id="mV4Gk4VA64g0n_hz20sP-34" value="" style="endArrow=classic;html=1;rounded=0;fontSize=12;" edge="1" parent="1" source="mV4Gk4VA64g0n_hz20sP-2" target="mV4Gk4VA64g0n_hz20sP-5">
          <mxGeometry width="50" height="50" relative="1" as="geometry">
            <mxPoint x="470" y="190" as="sourcePoint" />
            <mxPoint x="520" y="140" as="targetPoint" />
          </mxGeometry>
        </mxCell>
        <mxCell id="mV4Gk4VA64g0n_hz20sP-36" value="" style="endArrow=classic;html=1;rounded=0;fontSize=12;" edge="1" parent="1" source="mV4Gk4VA64g0n_hz20sP-2" target="mV4Gk4VA64g0n_hz20sP-4">
          <mxGeometry width="50" height="50" relative="1" as="geometry">
            <mxPoint x="370" y="190" as="sourcePoint" />
            <mxPoint x="420" y="140" as="targetPoint" />
          </mxGeometry>
        </mxCell>
        <mxCell id="mV4Gk4VA64g0n_hz20sP-38" value="" style="endArrow=none;html=1;rounded=0;fontSize=12;" edge="1" parent="1">
          <mxGeometry width="50" height="50" relative="1" as="geometry">
            <mxPoint x="460" y="450" as="sourcePoint" />
            <mxPoint x="570" y="310" as="targetPoint" />
            <Array as="points">
              <mxPoint x="460" y="310" />
            </Array>
          </mxGeometry>
        </mxCell>
      </root>
    </mxGraphModel>
  </diagram>
</mxfile>
